<svg enable-background="new 0 0 113.748 16.977" height="122.065556" viewBox="0 0 999.99999 149.25098" width="819.231921" xmlns="http://www.w3.org/2000/svg"><g transform="scale(8.7913634)"><g fill="#6b6c6c"><path d="m42.382 3.005v10.944h7.322v-1.902h-5.072v-2.806h4.725v-1.858h-4.725v-2.507l4.892.001v-1.872zm8.18 10.944h2.204v-10.991h-2.204zm9.994-4.108c0-2.173-.981-3.697-3.411-3.697s-3.699 1.45-3.699 3.956c0 2.656.967 4.031 3.804 4.031 1.343 0 2.582-.408 3.171-.801l-.408-1.434c-.65.332-1.6.574-2.37.574s-1.343-.226-1.585-.483c-.287-.317-.423-.83-.423-1.358h4.921zm-2.159-.617h-2.762c.031-1.056.543-1.569 1.449-1.569.999 0 1.313.648 1.313 1.569m9.432-2.069c-.529-.543-1.555-.965-2.703-.965-2.672 0-3.939 1.206-3.939 3.998 0 2.688 1.011 3.97 3.864 3.97 1.178 0 2.189-.286 2.748-.633l-.453-1.511c-.559.273-1.268.468-2.098.468-1.177 0-1.933-.648-1.933-2.263 0-1.75.65-2.401 1.827-2.401.649 0 1.207.272 1.569.605zm6.529-.814h-2.551v-1.826l-2.16.357v1.469h-1.312v1.707h1.312v3.351c0 2.007.62 2.732 2.37 2.732.982 0 1.918-.212 2.642-.605l-.317-1.57c-.467.243-1.086.378-1.524.378-.74 0-1.011-.243-1.011-1.208v-3.064h2.551zm1.083 0v7.608h2.188v-5.239c.378-.483 1.073-.785 1.781-.785.394 0 .831.106 1.073.242l.498-1.767c-.333-.18-.89-.257-1.403-.257-.741 0-1.657.333-2.125.953l.001-.756h-2.013zm9.309-.197c-2.778 0-3.957 1.315-3.957 3.971 0 2.491.847 4.016 3.639 4.016 2.702 0 3.969-1.284 3.969-3.94 0-2.596-.844-4.047-3.651-4.047m1.433 3.911c0 1.752-.332 2.49-1.705 2.49-1.148 0-1.464-.891-1.464-2.414 0-1.721.361-2.402 1.69-2.402 1.223 0 1.479.907 1.479 2.326m3.005-3.714v7.608h2.189v-5.601c.272-.195.816-.392 1.269-.392 1.071 0 1.298.423 1.298 1.268v4.725h2.188v-5.251c0-1.526-.544-2.538-2.37-2.538-.845 0-1.738.212-2.522.697v-.017-.499zm8.014-1.646h2.219v-1.765h-2.219zm.016 9.254h2.188v-7.608h-2.188zm9.571-6.824c-.53-.544-1.556-.966-2.704-.966-2.67 0-3.939 1.208-3.939 4.001 0 2.686 1.013 3.97 3.864 3.97 1.177 0 2.19-.287 2.748-.634l-.453-1.51c-.558.272-1.268.468-2.098.468-1.178 0-1.932-.648-1.932-2.264 0-1.751.649-2.4 1.826-2.4.65 0 1.208.271 1.57.603zm6.898-.301c-.892-.407-1.751-.664-2.988-.664-2.129 0-3.262.906-3.262 2.31 0 1.434.921 2.083 2.099 2.354l.86.196c.77.166 1.252.424 1.252.801 0 .468-.482.71-1.176.71-.876 0-1.902-.287-2.536-.649l-.56 1.569c.771.408 1.737.709 3.081.709 2.038 0 3.291-.799 3.291-2.476 0-1.116-.695-1.749-1.616-2.021-.257-.076-.725-.212-1.056-.287-.801-.166-1.6-.334-1.6-.936 0-.454.482-.695 1.267-.695.876 0 1.721.226 2.324.558z"/><path d="m20.771 3.003v10.973h3.133 4.652v-2.138h-5.252v-8.835z"/><path d="m34.134 9.793h2.065v1.918c-.381.146-1.123.29-1.83.29-2.281 0-3.042-1.159-3.042-3.512 0-2.245.724-3.567 3.005-3.567 1.269 0 1.993.398 2.59 1.158l1.576-1.448c-.96-1.376-2.644-1.792-4.219-1.792-3.55 0-5.415 1.936-5.415 5.63 0 3.677 1.684 5.669 5.396 5.669 1.702 0 3.369-.435 4.274-1.069v-5.323h-4.4z"/></g><path d="m8.488 16.977c4.688 0 8.488-3.802 8.488-8.488 0-4.689-3.8-8.489-8.488-8.489s-8.488 3.8-8.488 8.489c0 4.686 3.8 8.488 8.488 8.488" fill="#a51b37"/><path d="m8.825 4.762h-.674v7.442h2.364v-.665h-1.69z" fill="#fff"/><path d="m5.778 6.794c.562 0 1.019-.457 1.019-1.017 0-.561-.457-1.017-1.019-1.017-.56 0-1.017.456-1.017 1.017 0 .56.457 1.017 1.017 1.017" fill="#fff"/><path d="m8.825 1.386c-.085-.004-.254-.005-.337-.005-3.915 0-7.102 3.187-7.102 7.105 0 1.897.735 3.681 2.076 5.022 1.346 1.344 3.131 2.083 5.026 2.083 1.896 0 3.681-.739 5.025-2.083 1.341-1.341 2.078-3.125 2.078-5.022v-.323h-.284-4.787v.661h4.397v.095c-.226 3.35-3.024 6.007-6.429 6.007-1.719 0-3.335-.669-4.553-1.885-1.217-1.217-1.887-2.835-1.887-4.555 0-1.719.67-3.338 1.887-4.555 1.218-1.218 2.834-1.887 4.553-1.887.078 0 .26.002.337.004z" fill="#fff"/></g></svg>