<?xml version="1.0" standalone="no"?>
<!DOCTYPE svg PUBLIC "-//W3C//DTD SVG 20010904//EN"
 "http://www.w3.org/TR/2001/REC-SVG-20010904/DTD/svg10.dtd">
<svg version="1.0" xmlns="http://www.w3.org/2000/svg"
 width="1600.000000pt" height="1600.000000pt" viewBox="0 0 1600.000000 1600.000000"
 preserveAspectRatio="xMidYMid meet">

<g transform="translate(0.000000,1600.000000) scale(0.100000,-0.100000)"
fill="#000000" stroke="none">
<path d="M5046 9963 c-20 -42 -34 -79 -29 -83 4 -4 68 -12 142 -18 73 -6 136
-13 139 -17 3 -3 -16 -83 -43 -178 -34 -121 -68 -215 -117 -319 -37 -82 -68
-152 -68 -157 0 -14 84 -43 111 -39 23 3 25 8 42 160 14 124 30 200 76 365
l59 208 -22 19 c-11 10 -73 44 -137 76 l-115 58 -38 -75z"/>
<path d="M8817 9685 c-486 -92 -794 -430 -837 -921 -54 -610 312 -1070 910
-1144 233 -28 469 16 646 121 60 35 181 142 215 190 l19 27 -181 135 -182 134
-62 -63 c-45 -46 -84 -74 -140 -100 -68 -33 -88 -38 -174 -42 -170 -8 -282 32
-400 143 -121 115 -188 265 -198 450 -25 431 305 752 690 670 85 -18 161 -55
212 -106 23 -21 44 -39 48 -39 5 0 81 59 170 132 89 72 164 133 166 134 8 6
-55 71 -113 118 -75 60 -194 119 -301 147 -105 28 -371 36 -488 14z"/>
<path d="M6282 9458 l3 -193 283 -3 282 -2 0 -800 0 -800 220 0 220 0 0 800 0
800 285 0 285 0 0 195 0 195 -790 0 -790 0 2 -192z"/>
<path d="M10020 8655 l0 -995 630 0 630 0 -2 203 -3 202 -407 3 -408 2 0 790
0 790 -220 0 -220 0 0 -995z"/>
<path d="M4605 9088 l-198 -391 48 6 c82 12 192 72 265 146 135 136 187 311
145 489 -13 53 -49 142 -58 142 -2 0 -93 -176 -202 -392z"/>
<path d="M5630 9400 c-11 -11 -39 -59 -64 -107 -85 -170 -241 -381 -367 -498
-253 -235 -563 -381 -856 -401 l-92 -7 -91 -178 c-49 -97 -90 -182 -90 -187 0
-19 173 -54 292 -60 248 -11 460 56 681 216 226 162 455 463 582 763 87 207
126 400 91 454 -20 31 -58 33 -86 5z"/>
<path d="M4853 7821 c-367 -278 -591 -560 -664 -838 -28 -106 -30 -278 -5
-387 65 -283 286 -560 592 -742 195 -116 437 -190 505 -154 39 21 23 54 -57
120 -198 164 -390 447 -483 713 -53 151 -74 275 -68 402 13 269 137 632 283
825 79 105 85 115 78 134 -14 37 -60 18 -181 -73z"/>
<path d="M4100 7715 c-52 -26 -132 -67 -177 -92 l-81 -46 -267 -528 -266 -528
27 -68 c103 -262 346 -529 590 -650 61 -30 89 -38 133 -38 48 0 56 3 59 20 1
12 -16 42 -43 75 -233 279 -374 725 -325 1026 39 247 200 548 392 737 99 98
116 129 73 135 -11 1 -63 -18 -115 -43z"/>
<path d="M8050 6470 l0 -810 100 0 100 0 0 810 0 810 -100 0 -100 0 0 -810z"/>
<path d="M9920 6470 l0 -810 100 0 100 0 0 87 0 87 48 -46 c109 -107 219 -150
382 -151 88 0 117 4 178 26 138 48 245 141 314 273 51 97 71 180 71 299 0 183
-52 314 -173 436 -87 88 -164 130 -280 155 -176 37 -368 -18 -492 -141 l-48
-47 0 321 0 321 -100 0 -100 0 0 -810z m738 158 c70 -26 165 -114 201 -187
112 -222 27 -489 -187 -589 -51 -24 -69 -27 -162 -27 -96 0 -110 3 -159 28
-258 136 -308 496 -96 696 111 106 255 134 403 79z"/>
<path d="M12780 6470 l0 -810 100 0 100 0 0 810 0 810 -100 0 -100 0 0 -810z"/>
<path d="M6905 7226 c-404 -94 -658 -457 -614 -878 34 -331 270 -602 600 -689
114 -30 289 -30 402 0 158 42 282 123 375 246 89 119 132 252 147 453 l7 92
-386 0 -386 0 0 -85 0 -85 271 0 272 0 -7 -51 c-14 -104 -65 -198 -153 -281
-164 -153 -430 -170 -649 -43 -69 40 -173 149 -212 222 -96 182 -96 442 0 626
42 80 155 193 234 235 217 113 481 76 646 -91 33 -33 71 -86 89 -122 l32 -65
109 0 110 0 -6 28 c-12 50 -73 166 -119 229 -81 109 -220 201 -367 243 -97 28
-307 36 -395 16z"/>
<path d="M8995 6829 c-244 -38 -445 -218 -500 -450 -31 -135 -14 -293 48 -418
67 -137 227 -264 387 -307 79 -21 243 -24 320 -5 209 50 376 203 446 411 15
43 19 83 18 180 0 139 -18 204 -85 316 -69 115 -217 223 -354 258 -79 20 -205
27 -280 15z m186 -183 c81 -17 136 -45 190 -93 94 -85 140 -190 141 -318 1
-367 -431 -556 -697 -304 -169 159 -176 423 -16 592 61 65 129 104 214 122 80
17 89 17 168 1z"/>
<path d="M11720 6824 c-203 -44 -370 -212 -425 -429 -8 -33 -15 -103 -15 -160
0 -179 55 -319 170 -435 111 -112 240 -165 400 -164 139 1 267 50 365 139 27
25 50 45 52 45 2 0 3 -36 3 -80 l0 -80 100 0 100 0 0 575 0 575 -100 0 -100 0
0 -80 0 -81 -62 52 c-143 119 -312 161 -488 123z m294 -195 c96 -36 158 -94
208 -194 63 -125 62 -280 -3 -407 -32 -63 -115 -145 -178 -175 -50 -25 -67
-28 -161 -28 -99 0 -109 2 -172 33 -246 121 -302 471 -109 675 108 114 268
151 415 96z"/>
</g>
</svg>
